<svg xmlns="http://www.w3.org/2000/svg" width="10" height="10" viewBox="0 0 10 10" fill="none">
<path fill-rule="evenodd" clip-rule="evenodd" d="M0.000244141 2C0.000244141 0.89543 0.895675 0 2.00024 0H4.00024V1.3H2.10024C1.65842 1.3 1.30024 1.65817 1.30024 2.1V7.9C1.30024 8.34183 1.65842 8.7 2.10024 8.7H7.90024C8.34207 8.7 8.70024 8.34183 8.70024 7.9V6H10.0002V8C10.0002 9.10457 9.10481 10 8.00024 10H2.00024C0.895675 10 0.000244141 9.10457 0.000244141 8V2ZM6.00024 0H10.0002V4L8.49521 2.49496L5.4952 5.49497L4.50525 4.50502L7.50526 1.50501L6.00024 0Z" fill="white"/>
</svg>