<svg width="90" height="30" viewBox="0 0 90 30" fill="none" xmlns="http://www.w3.org/2000/svg">
<path d="M52.47 1.22656C54.5442 1.22656 56.2257 2.90806 56.2257 4.9823V24.8951C56.2257 26.9693 54.5442 28.6508 52.47 28.6508C50.3958 28.6508 48.7143 26.9693 48.7143 24.8951V4.9823C48.7143 2.90806 50.3958 1.22656 52.47 1.22656ZM62.6734 1.22656C64.7476 1.22656 66.4291 2.90806 66.4291 4.9823V24.8951C66.4291 26.9693 64.7476 28.6508 62.6734 28.6508C60.5992 28.6508 58.9176 26.9693 58.9176 24.8951V4.9823C58.9176 2.90806 60.5991 1.22656 62.6734 1.22656ZM42.8851 20.0087H33.0029C33.5518 21.8107 35.1143 22.9985 37.3527 22.9985C39.6754 22.9985 40.6467 21.9746 42.3782 21.9746C43.9408 21.9746 45.1233 22.9166 45.1233 24.5138C45.1233 27.2169 41.5758 28.7732 37.0993 28.7732C30.6802 28.7732 25.9502 24.1043 25.9502 18.3706C25.9502 12.5958 30.1733 7.92688 36.7192 7.92688C43.1806 7.92688 46.7281 12.2681 46.7281 16.2818C46.7281 18.4934 45.4189 20.0087 42.8851 20.0087ZM33.1296 15.9951H39.8866C39.3375 14.234 38.0706 13.4558 36.508 13.4558C34.861 13.4558 33.6786 14.4388 33.1296 15.9951ZM79.2671 7.92688C85.1598 7.92688 90 12.5801 90 18.3355C90 24.05 85.1598 28.7033 79.2671 28.7033C73.3745 28.7033 68.5342 24.05 68.5342 18.3355C68.5342 12.5802 73.3745 7.92688 79.2671 7.92688ZM79.2671 14.0904C76.9943 14.0904 75.3107 15.9272 75.3107 18.3355C75.3107 20.7029 76.9943 22.5397 79.2671 22.5397C81.5399 22.5397 83.2235 20.7029 83.2235 18.3355C83.2235 15.9272 81.5399 14.0904 79.2671 14.0904ZM19.8279 2.31757C17.603 2.31757 15.7994 4.12118 15.7994 6.34605V14.8206C14.2232 16.296 11.6948 16.1984 10.6874 16.076C10.5952 16.0648 10.5241 16.1541 10.5574 16.2408C10.8173 16.9168 11.9597 19.056 15.7994 19.8379V24.6223C15.7994 26.8472 17.603 28.6508 19.8279 28.6508C22.0527 28.6508 23.8564 26.8472 23.8564 24.6223V6.34605C23.8564 4.12118 22.0528 2.31757 19.8279 2.31757ZM3.99674 14.6931C3.98326 14.5951 4.08589 14.5231 4.17358 14.5688C4.71637 14.8512 6.28572 15.5896 8.05695 15.7111V6.34605C8.05695 4.12118 6.25334 2.31757 4.02848 2.31757C1.80362 2.31757 0 4.12118 0 6.34605V24.6223C0 26.8472 1.80361 28.6508 4.02847 28.6508C6.25334 28.6508 8.05695 26.8472 8.05695 24.6223V19.495C4.76182 18.5413 4.11516 15.5536 3.99674 14.6931Z" fill="white"/>
</svg>
